/vscmnt/brussel_pixiu_data/_data_brussel/112/vsc11236/PredSimResults/SUBJ06opt3D/weighted-expIG/worker_04.mot
version=1
nRows=7
nColumns=50
inDegrees=yes
endheader
                time	         pelvis_tilt	         pelvis_list	     pelvis_rotation	           pelvis_tx	           pelvis_ty	           pelvis_tz	       hip_flexion_r	     hip_adduction_r	      hip_rotation_r	        knee_angle_r	       ankle_angle_r	         mtp_angle_r	       hip_flexion_l	     hip_adduction_l	      hip_rotation_l	        knee_angle_l	       ankle_angle_l	         mtp_angle_l	    lumbar_extension	      lumbar_bending	     lumbar_rotation	 ercspn_r/activation	 intobl_r/activation	 extobl_r/activation	    abd_r/activation	    add_r/activation	hamstrings_r/activation	bifemsh_r/activation	glut_max_r/activation	iliopsoas_r/activation	rect_fem_r/activation	  vasti_r/activation	gastroc_r/activation	 soleus_r/activation	tib_ant_r/activation	 ercspn_l/activation	 intobl_l/activation	 extobl_l/activation	    abd_l/activation	    add_l/activation	hamstrings_l/activation	bifemsh_l/activation	glut_max_l/activation	iliopsoas_l/activation	rect_fem_l/activation	  vasti_l/activation	gastroc_l/activation	 soleus_l/activation	tib_ant_l/activation	
          0.00000000	         -6.69115750	         -0.73088140	          3.75064474	          0.00000000	          0.92854363	         -0.01054609	         32.73803563	         -0.94117570	         -5.66823132	         -7.25408904	          0.31331414	          0.22665420	         -8.95375080	         -0.08461644	         -5.32827986	        -10.75656182	          9.81195812	         32.31414486	         -5.11522375	         -0.53463913	         -8.16462259	          0.19449328	          0.14752224	          0.01000023	          0.01000010	          0.29690029	          0.07655858	          0.12347964	          0.01218043	          0.12451911	          0.01283021	          0.01000013	          0.01000048	          0.01000003	          0.51810742	          0.11778042	          0.01000002	          0.01000010	          0.09731771	          0.01000061	          0.01000043	          0.29570932	          0.01583527	          0.69423280	          0.01013724	          0.01000010	          0.25923942	          0.41622722	          0.02545723	
          0.01232924	         -6.80130181	         -0.66234981	          3.77093417	          0.01658670	          0.92656432	         -0.00960832	         33.06573605	         -0.78573058	         -5.50494754	         -9.24669512	          0.02306682	          0.22157455	         -9.34775247	         -0.17267926	         -5.72110107	        -11.66379746	          8.95633456	         34.22761549	         -4.78170865	         -0.19329966	         -8.69795769	          0.17759043	          0.12237564	          0.01000024	          0.01000000	          0.42328342	          0.07872925	          0.10243145	          0.08008314	          0.10329359	          0.01064340	          0.01000016	          0.01454386	          0.01751810	          0.52403712	          0.16862073	          0.01000003	          0.01000007	          0.08072894	          0.01000091	          0.01000052	          0.26560373	          0.01453180	          0.71562459	          0.01205414	          0.01000014	          0.23527250	          0.39692668	          0.02111779	
          0.02465848	         -6.88487712	         -0.64438775	          3.78075695	          0.03368674	          0.92482637	         -0.00864357	         33.17376617	         -0.66678087	         -5.15247615	        -11.17227078	         -0.19720445	          0.19440885	         -9.61563784	         -0.34434990	         -6.10204687	        -12.88215176	          7.95567421	         36.22105496	         -4.41485349	          0.21257425	         -9.18682552	          0.14731846	          0.10151553	          0.01000019	          0.01712638	          0.35113070	          0.08362241	          0.08497113	          0.11168371	          0.08568618	          0.01000012	          0.01000011	          0.01206505	          0.01453201	          0.56483019	          0.16465753	          0.01000003	          0.01000014	          0.06696790	          0.01000495	          0.01296130	          0.24009148	          0.01205510	          0.69145866	          0.01000068	          0.01000009	          0.19516809	          0.36884921	          0.01751806	
          0.03698772	         -6.94538685	         -0.66970728	          3.77041202	          0.05108308	          0.92339938	         -0.00754943	         33.10649015	         -0.52794955	         -4.94815545	        -12.84378145	         -0.51910748	          0.18015272	         -9.68688101	         -0.60188396	         -6.48494029	        -14.50163714	          6.78109655	         38.29025211	         -4.04024689	          0.65943975	         -9.62192907	          0.15175452	          0.08421121	          0.01000021	          0.05312151	          0.32883632	          0.08411414	          0.07048708	          0.13793379	          0.07108012	          0.01000015	          0.02693887	          0.01000863	          0.01205491	          0.60507930	          0.16727793	          0.01000002	          0.01000010	          0.05555256	          0.01000081	          0.01075264	          0.21519932	          0.01000038	          0.64614893	          0.01000074	          0.01000005	          0.16189977	          0.34093019	          0.01453194	
          0.04931696	         -6.98373135	         -0.72052616	          3.73841716	          0.06856397	          0.92236411	         -0.00633198	         32.93661000	         -0.37976460	         -4.91390901	        -14.36942622	         -0.84550899	          0.15284152	         -9.51258634	         -0.93112497	         -6.87961217	        -16.57103655	          5.37454240	         40.41763226	         -3.68308783	          1.12667642	         -9.99731538	          0.15153145	          0.06985659	          0.01000021	          0.10396614	          0.30744600	          0.08242636	          0.05847200	          0.15139841	          0.05896381	          0.01000013	          0.09659259	          0.01000022	          0.01000008	          0.65418659	          0.19719407	          0.01000003	          0.01000010	          0.04608307	          0.01000098	          0.01000244	          0.19067194	          0.01000012	          0.54655867	          0.01000048	          0.01000003	          0.13430236	          0.28543202	          0.01205483	
          0.06164619	         -7.00190549	         -0.80332761	          3.68778780	          0.08595002	          0.92185898	         -0.00501256	         32.68218959	         -0.20804465	         -4.98565678	        -15.81082719	         -0.88090622	          0.11750139	         -9.06158997	         -1.34343190	         -7.29061954	        -19.10048074	          3.68031737	         42.49835305	         -3.35759212	          1.62076477	        -10.31051547	          0.14887520	          0.05794884	          0.01000020	          0.15901917	          0.27408581	          0.08219398	          0.04850501	          0.13745737	          0.04891285	          0.01000010	          0.17563134	          0.01000010	          0.01000002	          0.64969022	          0.22958172	          0.01000004	          0.01000010	          0.03822776	          0.01000185	          0.04400094	          0.17043817	          0.01000009	          0.45339241	          0.01000033	          0.01000002	          0.11140920	          0.23677730	          0.01000001	
          0.07397543	         -7.00376627	         -0.91731010	          3.62427885	          0.10306375	          0.92202894	         -0.00361240	         32.33303754	          0.00503953	         -5.06640143	        -17.17104419	         -0.36296408	          0.14299752	         -8.31148538	         -1.84235003	         -7.71039930	        -22.08248244	          1.69353500	         44.26745408	         -3.07515008	          2.13781893	        -10.56466124	          0.13838546	          0.04807089	          0.01000020	          0.20692716	          0.24245759	          0.07763554	          0.04023697	          0.11914209	          0.04057517	          0.01000011	          0.27476782	          0.01000027	          0.01000008	          0.56978307	          0.26226200	          0.01000005	          0.01000011	          0.03171146	          0.09502287	          0.12330650	          0.17173521	          0.01000005	          0.37610722	          0.01000015	          0.01000001	          0.09241840	          0.19641626	          0.01000009	
